<svg width="122" height="52" viewBox="0 0 122 52" fill="none" xmlns="http://www.w3.org/2000/svg">
<circle cx="1" cy="1" r="1" fill="#F8F8FD"/>
<circle cx="65" cy="1" r="1" fill="#F8F8FD"/>
<circle cx="9" cy="1" r="1" fill="#F8F8FD"/>
<circle cx="73" cy="1" r="1" fill="#F8F8FD"/>
<circle cx="17" cy="1" r="1" fill="#F8F8FD"/>
<circle cx="81" cy="1" r="1" fill="#F8F8FD"/>
<circle cx="25" cy="1" r="1" fill="#F8F8FD"/>
<circle cx="89" cy="1" r="1" fill="#F8F8FD"/>
<circle cx="33" cy="1" r="1" fill="#F8F8FD"/>
<circle cx="97" cy="1" r="1" fill="#F8F8FD"/>
<circle cx="41" cy="1" r="1" fill="#F8F8FD"/>
<circle cx="105" cy="1" r="1" fill="#F8F8FD"/>
<circle cx="49" cy="1" r="1" fill="#F8F8FD"/>
<circle cx="113" cy="1" r="1" fill="#F8F8FD"/>
<circle cx="57" cy="1" r="1" fill="#F8F8FD"/>
<circle cx="121" cy="1" r="1" fill="#F8F8FD"/>
<circle cx="1" cy="11" r="1" fill="#F8F8FD"/>
<circle cx="65" cy="11" r="1" fill="#F8F8FD"/>
<circle cx="9" cy="11" r="1" fill="#F8F8FD"/>
<circle cx="73" cy="11" r="1" fill="#F8F8FD"/>
<circle cx="17" cy="11" r="1" fill="#F8F8FD"/>
<circle cx="81" cy="11" r="1" fill="#F8F8FD"/>
<circle cx="25" cy="11" r="1" fill="#F8F8FD"/>
<circle cx="89" cy="11" r="1" fill="#F8F8FD"/>
<circle cx="33" cy="11" r="1" fill="#F8F8FD"/>
<circle cx="97" cy="11" r="1" fill="#F8F8FD"/>
<circle cx="41" cy="11" r="1" fill="#F8F8FD"/>
<circle cx="105" cy="11" r="1" fill="#F8F8FD"/>
<circle cx="49" cy="11" r="1" fill="#F8F8FD"/>
<circle cx="113" cy="11" r="1" fill="#F8F8FD"/>
<circle cx="57" cy="11" r="1" fill="#F8F8FD"/>
<circle cx="121" cy="11" r="1" fill="#F8F8FD"/>
<circle cx="1" cy="21" r="1" fill="#F8F8FD"/>
<circle cx="65" cy="21" r="1" fill="#F8F8FD"/>
<circle cx="9" cy="21" r="1" fill="#F8F8FD"/>
<circle cx="73" cy="21" r="1" fill="#F8F8FD"/>
<circle cx="17" cy="21" r="1" fill="#F8F8FD"/>
<circle cx="81" cy="21" r="1" fill="#F8F8FD"/>
<circle cx="25" cy="21" r="1" fill="#F8F8FD"/>
<circle cx="89" cy="21" r="1" fill="#F8F8FD"/>
<circle cx="33" cy="21" r="1" fill="#F8F8FD"/>
<circle cx="97" cy="21" r="1" fill="#F8F8FD"/>
<circle cx="41" cy="21" r="1" fill="#F8F8FD"/>
<circle cx="105" cy="21" r="1" fill="#F8F8FD"/>
<circle cx="49" cy="21" r="1" fill="#F8F8FD"/>
<circle cx="113" cy="21" r="1" fill="#F8F8FD"/>
<circle cx="57" cy="21" r="1" fill="#F8F8FD"/>
<circle cx="121" cy="21" r="1" fill="#F8F8FD"/>
<circle cx="1" cy="31" r="1" fill="#F8F8FD"/>
<circle cx="65" cy="31" r="1" fill="#F8F8FD"/>
<circle cx="9" cy="31" r="1" fill="#F8F8FD"/>
<circle cx="73" cy="31" r="1" fill="#F8F8FD"/>
<circle cx="17" cy="31" r="1" fill="#F8F8FD"/>
<circle cx="81" cy="31" r="1" fill="#F8F8FD"/>
<circle cx="25" cy="31" r="1" fill="#F8F8FD"/>
<circle cx="89" cy="31" r="1" fill="#F8F8FD"/>
<circle cx="33" cy="31" r="1" fill="#F8F8FD"/>
<circle cx="97" cy="31" r="1" fill="#F8F8FD"/>
<circle cx="41" cy="31" r="1" fill="#F8F8FD"/>
<circle cx="105" cy="31" r="1" fill="#F8F8FD"/>
<circle cx="49" cy="31" r="1" fill="#F8F8FD"/>
<circle cx="113" cy="31" r="1" fill="#F8F8FD"/>
<circle cx="57" cy="31" r="1" fill="#F8F8FD"/>
<circle cx="121" cy="31" r="1" fill="#F8F8FD"/>
<circle cx="1" cy="41" r="1" fill="#F8F8FD"/>
<circle cx="65" cy="41" r="1" fill="#F8F8FD"/>
<circle cx="9" cy="41" r="1" fill="#F8F8FD"/>
<circle cx="73" cy="41" r="1" fill="#F8F8FD"/>
<circle cx="17" cy="41" r="1" fill="#F8F8FD"/>
<circle cx="81" cy="41" r="1" fill="#F8F8FD"/>
<circle cx="25" cy="41" r="1" fill="#F8F8FD"/>
<circle cx="89" cy="41" r="1" fill="#F8F8FD"/>
<circle cx="33" cy="41" r="1" fill="#F8F8FD"/>
<circle cx="97" cy="41" r="1" fill="#F8F8FD"/>
<circle cx="41" cy="41" r="1" fill="#F8F8FD"/>
<circle cx="105" cy="41" r="1" fill="#F8F8FD"/>
<circle cx="49" cy="41" r="1" fill="#F8F8FD"/>
<circle cx="113" cy="41" r="1" fill="#F8F8FD"/>
<circle cx="57" cy="41" r="1" fill="#F8F8FD"/>
<circle cx="121" cy="41" r="1" fill="#F8F8FD"/>
<circle cx="1" cy="51" r="1" fill="#F8F8FD"/>
<circle cx="65" cy="51" r="1" fill="#F8F8FD"/>
<circle cx="9" cy="51" r="1" fill="#F8F8FD"/>
<circle cx="73" cy="51" r="1" fill="#F8F8FD"/>
<circle cx="17" cy="51" r="1" fill="#F8F8FD"/>
<circle cx="81" cy="51" r="1" fill="#F8F8FD"/>
<circle cx="25" cy="51" r="1" fill="#F8F8FD"/>
<circle cx="89" cy="51" r="1" fill="#F8F8FD"/>
<circle cx="33" cy="51" r="1" fill="#F8F8FD"/>
<circle cx="97" cy="51" r="1" fill="#F8F8FD"/>
<circle cx="41" cy="51" r="1" fill="#F8F8FD"/>
<circle cx="105" cy="51" r="1" fill="#F8F8FD"/>
<circle cx="49" cy="51" r="1" fill="#F8F8FD"/>
<circle cx="113" cy="51" r="1" fill="#F8F8FD"/>
<circle cx="57" cy="51" r="1" fill="#F8F8FD"/>
<circle cx="121" cy="51" r="1" fill="#F8F8FD"/>
</svg>
