<svg width="70" height="70" viewBox="0 0 70 70" fill="none" xmlns="http://www.w3.org/2000/svg">
<path d="M35 1.75C35 0.783499 35.7841 -0.00456394 36.7494 0.0437301C43.0577 0.359373 49.1751 2.37739 54.445 5.89856C60.2007 9.74441 64.6867 15.2107 67.3358 21.6061C69.9848 28.0015 70.678 35.0388 69.3275 41.8282C67.977 48.6175 64.6436 54.8539 59.7487 59.7487C54.8539 64.6436 48.6175 67.977 41.8282 69.3275C35.0388 70.678 28.0015 69.9848 21.6061 67.3358C15.2107 64.6867 9.74441 60.2007 5.89856 54.445C2.37739 49.1752 0.359371 43.0577 0.0437328 36.7494C-0.00456568 35.7841 0.7835 35 1.75 35C2.7165 35 3.49493 35.7841 3.54859 36.7491C3.86084 42.3648 5.67216 47.8063 8.80871 52.5005C12.27 57.6806 17.1896 61.718 22.9455 64.1022C28.7013 66.4864 35.0349 67.1102 41.1453 65.8947C47.2557 64.6793 52.8685 61.6792 57.2739 57.2739C61.6792 52.8685 64.6793 47.2557 65.8947 41.1453C67.1102 35.0349 66.4864 28.7013 64.1022 22.9455C61.718 17.1896 57.6806 12.27 52.5005 8.80871C47.8063 5.67216 42.3648 3.86085 36.7491 3.54859C35.7841 3.49492 35 2.7165 35 1.75Z" fill="#FA55A4"/>
</svg>
